<svg width="32" height="34" viewBox="0 0 32 34" fill="none" xmlns="http://www.w3.org/2000/svg">
<path d="M8.5 15.5V9.5C8.5 7.51088 9.29018 5.60322 10.6967 4.1967C12.1032 2.79018 14.0109 2 16 2C17.9891 2 19.8968 2.79018 21.3033 4.1967C22.7098 5.60322 23.5 7.51088 23.5 9.5V15.5M5.5 15.5H26.5C28.1569 15.5 29.5 16.8431 29.5 18.5V29C29.5 30.6569 28.1569 32 26.5 32H5.5C3.84315 32 2.5 30.6569 2.5 29V18.5C2.5 16.8431 3.84315 15.5 5.5 15.5Z" stroke="#D9D9D9" stroke-opacity="0.7" stroke-width="4" stroke-linecap="round" stroke-linejoin="round"/>
</svg>
