<svg width="28" height="28" viewBox="0 0 28 28" fill="none" xmlns="http://www.w3.org/2000/svg">
<path d="M14 14C18.4188 14 22 10.8664 22 7C22 3.13359 18.4188 0 14 0C9.58125 0 6 3.13359 6 7C6 10.8664 9.58125 14 14 14ZM19.6 15.75H18.5562C17.1687 16.3078 15.625 16.625 14 16.625C12.375 16.625 10.8375 16.3078 9.44375 15.75H8.4C3.7625 15.75 0 19.0422 0 23.1V25.375C0 26.8242 1.34375 28 3 28H25C26.6562 28 28 26.8242 28 25.375V23.1C28 19.0422 24.2375 15.75 19.6 15.75Z" fill="#D9D9D9" fill-opacity="0.7"/>
</svg>
